<?xml version="1.0" encoding="iso-8859-1"?>
<!-- Generator: Adobe Illustrator 19.0.0, SVG Export Plug-In . SVG Version: 6.00 Build 0)  -->
<svg version="1.1" id="Layer_1" xmlns="http://www.w3.org/2000/svg" xmlns:xlink="http://www.w3.org/1999/xlink" x="0px" y="0px"
	 viewBox="0 0 275.578 275.578" style="enable-background:new 0 0 275.578 275.578;" xml:space="preserve">
<g>
	<g>
		<path style="fill:#4EFFBB;" d="M259.197,122.947l-31.101-31.098c-0.427-0.427-0.89-0.775-1.394-1.085V13.193
			c0-4.261-3.486-7.744-7.745-7.744H102.423c-1.974,0-3.913,0.775-5.343,2.17L54.79,48.282c-1.512,1.473-2.362,3.486-2.362,5.578
			v36.598c-0.811,0.427-1.548,0.929-2.17,1.626l-28.622,31.098c-1.316,1.394-2.053,3.291-2.053,5.229v139.422
			c0,4.261,3.486,7.745,7.744,7.745h226.367c4.298,0,7.745-3.486,7.745-7.745V128.411
			C261.442,126.358,260.628,124.381,259.197,122.947z M67.917,60.637h34.275c4.297,0,7.744-3.486,7.744-7.744V20.94H211.21v123.076
			l-47.248,21.92l-17.235-17.427c-1.434-1.473-3.408-2.284-5.5-2.284c-2.053,0-4.027,0.814-5.5,2.245l-17.932,17.932l-49.881-23.507
			V60.637H67.917z"/>
		<g id="XMLID_6_">
			<g>
				<polygon style="fill:#302C58;" points="135.742,159.482 229.737,254.637 40.587,254.637 				"/>
				<polygon style="fill:#302C58;" points="221.256,106.89 237.947,123.62 221.256,131.365 				"/>
				<polygon style="fill:#302C58;" points="46.979,107.161 46.979,130.127 32.224,123.194 				"/>
				<polygon style="fill:#302C58;" points="88.999,26.182 88.999,39.696 74.94,39.696 				"/>
				<path style="fill:#222051;" d="M255.994,122.962v139.422c0,4.258-3.447,7.745-7.745,7.745H21.883
					c-4.261,0-7.744-3.486-7.744-7.745V122.962c0-1.935,0.736-3.835,2.053-5.229L44.81,86.635c0.619-0.697,1.355-1.199,2.17-1.626
					V48.411c0-2.092,0.853-4.105,2.362-5.578L91.631,2.17C93.065,0.775,95,0,96.978,0h116.534c4.258,0,7.745,3.486,7.745,7.744
					v77.574c0.502,0.31,0.968,0.658,1.394,1.085l31.098,31.098C255.182,118.935,255.994,120.91,255.994,122.962z M240.502,243.523
					V139.497l-70.407,32.727L240.502,243.523z M237.947,123.62l-16.691-16.73v24.478L237.947,123.62z M229.737,254.637
					l-93.995-95.155l-95.155,95.155H229.737z M205.764,138.569V15.492H104.491v31.952c0,4.258-3.447,7.744-7.744,7.744H62.471
					v82.259l49.881,23.507l17.932-17.932c1.473-1.434,3.447-2.245,5.5-2.245c2.092,0,4.066,0.814,5.5,2.284l17.235,17.427
					L205.764,138.569z M29.627,243.677l71.104-71.065l-71.104-33.499C29.627,139.113,29.627,243.677,29.627,243.677z M88.999,39.696
					V26.182L74.94,39.696H88.999z M46.979,130.127v-22.966l-14.756,16.033L46.979,130.127z"/>
			</g>
		</g>
	</g>
</g>
<g>
</g>
<g>
</g>
<g>
</g>
<g>
</g>
<g>
</g>
<g>
</g>
<g>
</g>
<g>
</g>
<g>
</g>
<g>
</g>
<g>
</g>
<g>
</g>
<g>
</g>
<g>
</g>
<g>
</g>
</svg>
