<svg version="1.1" id="Layer_1" xmlns="http://www.w3.org/2000/svg" xmlns:xlink="http://www.w3.org/1999/xlink" x="0px" y="0px" viewBox="0 0 48 48" style="enable-background:new 0 0 275.578 275.578" xml:space="preserve" width="48" height="48"><g><g><path style="fill:#4EFFBB" d="M45.147 21.415l-5.417 -5.417c-0.074 -0.074 -0.155 -0.135 -0.243 -0.189V2.298c0 -0.742 -0.607 -1.349 -1.349 -1.349H17.84c-0.344 0 -0.682 0.135 -0.931 0.378L9.543 8.41c-0.263 0.257 -0.411 0.607 -0.411 0.972v6.375c-0.141 0.074 -0.27 0.162 -0.378 0.283l-4.985 5.417c-0.229 0.243 -0.358 0.573 -0.358 0.911v24.284c0 0.742 0.607 1.349 1.349 1.349h39.428c0.749 0 1.349 -0.607 1.349 -1.349V22.367C45.538 22.009 45.396 21.665 45.147 21.415zM11.83 10.562h5.97c0.748 0 1.349 -0.607 1.349 -1.349V3.647H36.788v21.437l-8.23 3.818l-3.002 -3.035c-0.25 -0.257 -0.594 -0.398 -0.958 -0.398c-0.358 0 -0.701 0.142 -0.958 0.391l-3.123 3.123l-8.688 -4.094V10.562H11.83z"/><g id="XMLID_6_"><g><path style="fill:#302C58" points="135.742,159.482 229.737,254.637 40.587,254.637 				" d="M23.643 27.778L40.015 44.353L7.069 44.353Z"/><path style="fill:#302C58" points="221.256,106.89 237.947,123.62 221.256,131.365 				" d="M38.538 18.618L41.445 21.532L38.538 22.881Z"/><path style="fill:#302C58" points="46.979,107.161 46.979,130.127 32.224,123.194 				" d="M8.183 18.665L8.183 22.665L5.613 21.458Z"/><path style="fill:#302C58" points="88.999,26.182 88.999,39.696 74.94,39.696 				" d="M15.502 4.56L15.502 6.914L13.053 6.914Z"/><path style="fill:#222051" d="M44.589 21.417v24.284c0 0.742 -0.6 1.349 -1.349 1.349H3.812c-0.742 0 -1.349 -0.607 -1.349 -1.349V21.417c0 -0.337 0.128 -0.668 0.358 -0.911L7.805 15.09c0.108 -0.121 0.236 -0.209 0.378 -0.283V8.432c0 -0.364 0.149 -0.715 0.411 -0.972L15.96 0.378C16.21 0.135 16.547 0 16.892 0h20.298c0.742 0 1.349 0.607 1.349 1.349v13.512c0.087 0.054 0.169 0.115 0.243 0.189l5.417 5.417C44.447 20.716 44.589 21.06 44.589 21.417zM41.89 42.417V24.297l-12.263 5.7L41.89 42.417zM41.445 21.532l-2.907 -2.914v4.264L41.445 21.532zM40.015 44.353l-16.372 -16.574l-16.574 16.574H40.015zM35.84 24.136V2.698H18.2v5.565c0 0.742 -0.6 1.349 -1.349 1.349H10.881v14.328l8.688 4.094l3.123 -3.123c0.257 -0.25 0.6 -0.391 0.958 -0.391c0.364 0 0.708 0.142 0.958 0.398l3.002 3.035L35.84 24.136zM5.16 42.444l12.385 -12.378l-12.385 -5.835C5.16 24.231 5.16 42.444 5.16 42.444zM15.502 6.914V4.56L13.053 6.914H15.502zM8.183 22.665v-4l-2.57 2.793L8.183 22.665z"/></g></g></g></g><g/><g/><g/><g/><g/><g/><g/><g/><g/><g/><g/><g/><g/><g/><g/></svg>
