<svg width="48px" height="48px" viewBox="0 0 48 48" role="img" xmlns="http://www.w3.org/2000/svg">
  <path d="M47.762 17.896c-1.546 -8.17 -9.718 -9.186 -9.718 -9.186H1.446c-1.208 0 -1.358 1.596 -1.358 1.596s-0.164 14.648 -0.044 23.644c0.328 4.848 5.172 5.344 5.172 5.344s16.534 -0.046 23.932 -0.098c4.876 -0.852 5.366 -5.132 5.316 -7.468 8.704 0.48 14.844 -5.662 13.298 -13.832zm-22.124 7.022c-2.492 2.906 -8.022 7.952 -8.022 7.952s-0.242 0.238 -0.62 0.046c-0.152 -0.114 -0.216 -0.18 -0.216 -0.18 -0.886 -0.882 -6.736 -6.098 -8.068 -7.908 -1.418 -1.93 -2.082 -5.4 -0.182 -7.42 1.902 -2.02 6.01 -2.172 8.726 0.814 0 0 3.13 -3.564 6.936 -1.926 3.808 1.64 3.664 6.022 1.446 8.622zm12.346 0.956c-1.856 0.232 -3.364 0.056 -3.364 0.056V14.568h3.54s3.942 1.102 3.942 5.276c0 3.826 -1.97 5.334 -4.118 6.03z"/>
</svg>
