<svg version="1.1" id="Layer_1" xmlns="http://www.w3.org/2000/svg" xmlns:xlink="http://www.w3.org/1999/xlink" x="0px" y="0px" viewBox="0 0 48 48" style="enable-background:new 0 0 503.467 503.467" xml:space="preserve" width="48" height="48">
  <g transform="translate(1 1)">
    <path style="fill:#AAB1BA" d="M0.313 47.498V26.345h4.881c0.895 0 1.627 0.732 1.627 1.627v1.627v11.39v4.881c0 0.895 -0.732 1.627 -1.627 1.627H0.313z"/>
    <path style="fill:#FFD0A1" d="M32.855 35.294c0 0 0.814 0.814 0.814 2.441l0.081 0.244c0.244 -0.081 0.488 -0.163 0.732 -0.325l9.356 -4.556c1.139 -0.651 2.685 -0.244 3.336 0.895s0.244 2.685 -0.895 3.336l-10.983 6.915c0 0 -2.441 1.627 -8.136 1.627c-4.881 0 -12.203 -4.068 -12.203 -4.068s-1.627 -0.814 -4.881 -0.814H6.821V29.6h9.763c2.441 0 6.509 4.881 8.949 4.881h4.881C32.042 34.481 32.855 35.294 32.855 35.294"/>
    <path style="fill:#FFE079" d="M32.042 0.311c6.753 0 12.203 5.451 12.203 12.203s-5.451 12.203 -12.203 12.203s-12.203 -5.451 -12.203 -12.203S25.289 0.311 32.042 0.311"/>
  </g>
  <path style="fill:#51565F" d="M5.289 48h-4.881c-0.244 0 -0.407 -0.163 -0.407 -0.407c0 -0.244 0.163 -0.407 0.407 -0.407h4.881c0.651 0 1.22 -0.569 1.22 -1.22V28.068c0 -0.651 -0.569 -1.22 -1.22 -1.22h-4.881c-0.244 0 -0.407 -0.163 -0.407 -0.407s0.163 -0.407 0.407 -0.407h4.881c1.139 0 2.034 0.895 2.034 2.034v17.898C7.323 47.105 6.429 48 5.289 48zM27.256 46.373c-4.963 0 -12.122 -3.986 -12.366 -4.149l0 0c0 0 -1.627 -0.732 -4.719 -0.732c-0.244 0 -0.407 -0.163 -0.407 -0.407c0 -0.244 0.163 -0.407 0.407 -0.407c3.336 0 4.963 0.814 5.044 0.895c0.081 0.081 7.322 3.986 12.041 3.986c5.451 0 7.891 -1.546 7.891 -1.546l10.983 -6.834c0.488 -0.244 0.814 -0.732 0.976 -1.22c0.163 -0.488 0.081 -1.058 -0.244 -1.546c-0.325 -0.488 -0.732 -0.814 -1.22 -0.976c-0.488 -0.163 -1.058 -0.081 -1.546 0.163l-9.356 4.556c-1.708 0.895 -3.336 0.895 -6.671 0.895c-3.254 0 -7.973 -0.814 -8.217 -0.814s-0.407 -0.244 -0.325 -0.488c0 -0.244 0.244 -0.407 0.488 -0.325c0.081 0 4.881 0.814 8.054 0.814s4.8 0 6.346 -0.732l9.356 -4.556c1.302 -0.732 3.092 -0.325 3.824 1.058c0.407 0.651 0.488 1.464 0.325 2.197c-0.163 0.732 -0.651 1.383 -1.302 1.708l-10.983 6.834C35.473 44.746 33.032 46.373 27.256 46.373zM2.442 43.932c-0.488 0 -0.814 -0.325 -0.814 -0.814s0.325 -0.814 0.814 -0.814s0.814 0.325 0.814 0.814S2.93 43.932 2.442 43.932zM32.951 35.797c-0.081 0 -0.244 0 -0.325 -0.081l0 0c0 0 -0.732 -0.732 -2.115 -0.732h-4.881c-1.383 0 -3.01 -1.22 -4.719 -2.522c-1.546 -1.139 -3.173 -2.359 -4.23 -2.359h-6.509c-0.244 0 -0.407 -0.163 -0.407 -0.407c0 -0.244 0.163 -0.407 0.407 -0.407h6.509c1.383 0 3.01 1.22 4.719 2.522c1.546 1.139 3.173 2.359 4.23 2.359h4.881c1.79 0 2.685 0.895 2.766 0.895c0.163 0.163 0.163 0.407 0 0.569C33.195 35.797 33.032 35.797 32.951 35.797zM32.137 25.22c-6.915 0 -12.61 -5.695 -12.61 -12.61S25.222 0 32.137 0s12.61 5.695 12.61 12.61S39.052 25.22 32.137 25.22zM32.137 0.814c-6.509 0 -11.797 5.288 -11.797 11.797S25.629 24.407 32.137 24.407s11.797 -5.288 11.797 -11.797S38.645 0.814 32.137 0.814zM32.137 18.712c-0.244 0 -0.407 -0.163 -0.407 -0.407v-0.407c-1.383 -0.163 -2.441 -1.383 -2.441 -2.847c0 -0.244 0.163 -0.407 0.407 -0.407s0.407 0.163 0.407 0.407c0 1.139 0.895 2.034 2.034 2.034s2.034 -0.895 2.034 -2.034c0 -1.139 -0.895 -2.034 -2.034 -2.034c-1.546 0 -2.847 -1.302 -2.847 -2.847c0 -1.464 1.058 -2.603 2.441 -2.847v-0.407c0 -0.244 0.163 -0.407 0.407 -0.407s0.407 0.163 0.407 0.407V7.322c1.383 0.163 2.441 1.383 2.441 2.847c0 0.244 -0.163 0.407 -0.407 0.407s-0.407 -0.163 -0.407 -0.407c0 -1.139 -0.895 -2.034 -2.034 -2.034s-2.034 0.895 -2.034 2.034S30.998 12.203 32.137 12.203c1.546 0 2.847 1.302 2.847 2.847c0 1.464 -1.058 2.603 -2.441 2.847V18.305C32.544 18.549 32.381 18.712 32.137 18.712z"/>
  <g/>
  <g/>
  <g/>
  <g/>
  <g/>
  <g/>
  <g/>
  <g/>
  <g/>
  <g/>
  <g/>
  <g/>
  <g/>
  <g/>
  <g/>
</svg>
